<svg xmlns="http://www.w3.org/2000/svg" viewBox="0 0 849.72 707.84"><defs><style>.cls-1{fill:#013bd6}.cls-2{fill:#000d46}.cls-3{fill:#00e193}.cls-6{fill:#fff}</style></defs><g id="Layer_2" data-name="Layer 2"><g id="Layer_1-2" data-name="Layer 1"><path class="cls-1" d="M271.53 310l-21.77-30.89-76 22.85-1.12 37.77L132 351.89l9.42-210.81 46.59-14L312.4 297.66zm-96.37-46.8l52.32-15.72-49.58-70.12z"/><path class="cls-2" d="M226.89 249.06a1 1 0 0 1-.82-.43L178.21 181l-1.46 45.78a1 1 0 0 1-1 1 1 1 0 0 1-1-1l1.56-48.78a1 1 0 0 1 1.81-.55l49.59 70.07a1 1 0 0 1-.24 1.39 1 1 0 0 1-.58.15zM131 353.23l.06-1.41L140.44 141a1 1 0 0 1 1.05-.95 1 1 0 0 1 .95 1l-9.36 209.4 39.25-11.8a1 1 0 0 1 1.25.67 1 1 0 0 1-.67 1.25z"/><g id="flower"><path class="cls-3" d="M717.81 367.08C772.42 293.7 830 276.32 847 318.42s-48.23 66.82-129.19 48.66zM717 281.3c-53.8-44.43-62.69-138.22 0-138.22S766.37 262 717 281.3z"/><path class="cls-2" d="M718.48 539.48a1 1 0 0 1-1-1L716 159.87a1 1 0 0 1 1-1 1 1 0 0 1 1 1l1.48 378.61a1 1 0 0 1-1 1z"/><path class="cls-2" d="M717.81 368.08a1 1 0 0 1-1-1 1 1 0 0 1 .61-.91l98.64-41.33a1 1 0 1 1 .77 1.85L718.2 368a1.09 1.09 0 0 1-.39.08z"/><path class="cls-3" d="M745.91 485c-46-43 37.63-132.61 86.13-92.36s-38.1 137.19-86.13 92.36z"/><path class="cls-2" d="M718.48 514.66a1 1 0 0 1-1-1 1 1 0 0 1 .28-.69l104.59-109.49a1 1 0 0 1 1.4-.14 1 1 0 0 1 .14 1.41l-.1.11-104.58 109.49a1 1 0 0 1-.73.31z"/><path class="cls-3" d="M718.48 405L589 281.3s-12.38 67.95 35.09 99.42S718.48 405 718.48 405z"/><path fill="none" stroke="#000d46" stroke-linecap="round" stroke-miterlimit="10" stroke-width="2" d="M608.99 300.39l109.49 104.59"/></g><path d="M63.59 349.06c0 198.15 160.62 358.78 358.77 358.78s358.78-160.63 358.78-358.78H63.59" fill="#ef5ed4"/><path class="cls-1" d="M351.92 700.56l-60-60 96.93-96.93 96.94 96.93-66.89 66.89s-22.78-.67-36.53-2.2c-14.31-1.58-30.45-4.69-30.45-4.69z"/><path class="cls-3" transform="rotate(-4.67 482.49 475.11)" d="M446.22 258.98h72.52v432.3h-72.52z"/><path class="cls-1" d="M537.28 110.89V568.4a19.42 19.42 0 0 1-19.4 19.4h155.19a19.42 19.42 0 0 0 19.4-19.4V110.89z"/><g id="white_line" data-name="white line"><path class="cls-6" d="M692.42 505.71H537.26a.51.51 0 0 1-.5-.5.5.5 0 0 1 .5-.5h155.16a.5.5 0 0 1 .5.5.52.52 0 0 1-.5.5zm0 26.14H537.26a.5.5 0 0 1-.5-.5.5.5 0 0 1 .5-.5h155.16a.51.51 0 0 1 .5.5.5.5 0 0 1-.5.5zm0 26.15H537.26a.5.5 0 0 1-.5-.5.5.5 0 0 1 .5-.5h155.16a.51.51 0 0 1 .5.5.5.5 0 0 1-.5.5z"/><path class="cls-6" d="M563 587.45a.5.5 0 0 1-.5-.5V110.89a.5.5 0 0 1 .5-.5.5.5 0 0 1 .5.5V587a.52.52 0 0 1-.5.45zm27-12.67a.5.5 0 0 1-.5-.5V110.89a.5.5 0 0 1 .5-.5.5.5 0 0 1 .5.5v463.39a.52.52 0 0 1-.5.5zm27-6.78a.5.5 0 0 1-.5-.5V110.89a.5.5 0 0 1 .5-.5.5.5 0 0 1 .5.5v456.62a.51.51 0 0 1-.5.49zm27 2.18a.5.5 0 0 1-.5-.5V110.89a.5.5 0 0 1 .5-.5.5.5 0 0 1 .5.5v458.79a.52.52 0 0 1-.5.5zm27 18.12a.5.5 0 0 1-.5-.5V110.89a.5.5 0 0 1 .5-.5.5.5 0 0 1 .5.5V587.8a.52.52 0 0 1-.5.5z"/><path class="cls-6" d="M692.42 136.23H537.26a.5.5 0 0 1 0-1h155.16a.5.5 0 0 1 0 1zm0 27H537.26a.5.5 0 0 1 0-1h155.16a.5.5 0 0 1 0 1zm0 27H537.26a.5.5 0 0 1 0-1h155.16a.5.5 0 0 1 0 1zm0 27H537.26a.5.5 0 0 1 0-1h155.16a.5.5 0 0 1 0 1zm0 27H537.26a.5.5 0 0 1 0-1h155.16a.5.5 0 0 1 0 1zm0 26.15H537.26a.51.51 0 0 1-.5-.5.5.5 0 0 1 .5-.5h155.16a.5.5 0 0 1 .5.5.52.52 0 0 1-.5.5zm0 26.15H537.26a.51.51 0 0 1-.5-.5.5.5 0 0 1 .5-.5h155.16a.5.5 0 0 1 .5.5.52.52 0 0 1-.5.5zm0 26.14H537.26a.5.5 0 0 1-.5-.5.5.5 0 0 1 .5-.5h155.16a.51.51 0 0 1 .5.5.5.5 0 0 1-.5.5zm0 26.15H537.26a.5.5 0 0 1 0-1h155.16a.5.5 0 0 1 0 1zm0 26.18H537.26a.51.51 0 0 1-.5-.5.5.5 0 0 1 .5-.5h155.16a.5.5 0 0 1 .5.5.52.52 0 0 1-.5.5zm0 26.12H537.26a.51.51 0 0 1-.5-.5.5.5 0 0 1 .5-.5h155.16a.5.5 0 0 1 .5.5.52.52 0 0 1-.5.5zm0 26.14H537.26a.5.5 0 0 1-.5-.5.5.5 0 0 1 .5-.5h155.16a.51.51 0 0 1 .5.5.5.5 0 0 1-.5.5zm0 26.15H537.26a.5.5 0 0 1 0-1h155.16a.5.5 0 0 1 0 1zm0 26.15H537.26a.5.5 0 0 1 0-1h155.16a.5.5 0 0 1 0 1z"/></g><path class="cls-2" d="M634.27 481.11a19.39 19.39 0 0 1 19.4 19.38v67.9a19.41 19.41 0 0 0 19.4 19.4h-87.29V481.11z"/><path d="M634.27 481.11H479.08a19.4 19.4 0 0 0-19.4 19.39v205.06a356.56 356.56 0 0 0 155.19-54.06v-151a19.4 19.4 0 0 1 19.4-19.39z" fill="#00adff"/><g id="black_line" data-name="black line"><path class="cls-2" d="M485.47 702.44a.5.5 0 0 1-.5-.5V481.11a.5.5 0 0 1 .5-.5.5.5 0 0 1 .5.5v220.83a.5.5 0 0 1-.5.5zm27-5.88a.5.5 0 0 1-.5-.5V481.11a.5.5 0 0 1 .5-.5.5.5 0 0 1 .5.5v214.95a.5.5 0 0 1-.5.5zm27-3.13a.5.5 0 0 1-.5-.5V481.11a.5.5 0 0 1 .5-.5.5.5 0 0 1 .5.5v211.82a.52.52 0 0 1-.5.5zm27 1a.5.5 0 0 1-.5-.5V481.11a.5.5 0 0 1 .5-.5.5.5 0 0 1 .5.5v212.82a.5.5 0 0 1-.5.5zm27-12.65a.5.5 0 0 1-.5-.5V481.11a.5.5 0 0 1 .5-.5.5.5 0 0 1 .5.5v200.17a.5.5 0 0 1-.5.5z"/><path class="cls-2" d="M614.84 506.45H459.68a.51.51 0 0 1-.5-.5.5.5 0 0 1 .5-.5h155.16a.5.5 0 0 1 .5.5.52.52 0 0 1-.5.5zm0 27H459.68a.51.51 0 0 1-.5-.5.5.5 0 0 1 .5-.5h155.16a.5.5 0 0 1 .5.5.52.52 0 0 1-.5.5zm0 27H459.68a.51.51 0 0 1-.5-.5.5.5 0 0 1 .5-.5h155.16a.5.5 0 0 1 .5.5.52.52 0 0 1-.5.5zm0 27H459.68a.51.51 0 0 1-.5-.5.5.5 0 0 1 .5-.5h155.16a.5.5 0 0 1 .5.5.52.52 0 0 1-.5.5zm0 27H459.68a.51.51 0 0 1-.5-.5.5.5 0 0 1 .5-.5h155.16a.5.5 0 0 1 .5.5.52.52 0 0 1-.5.5zm0 26.14H459.68a.5.5 0 0 1-.5-.5.5.5 0 0 1 .5-.5h155.16a.51.51 0 0 1 .5.5.5.5 0 0 1-.5.5zm0 24.19H459.68a.5.5 0 0 1 0-1h155.16a.5.5 0 0 1 0 1zM602.36 689H459.68a.5.5 0 0 1-.5-.5.5.5 0 0 1 .5-.5h142.68a.5.5 0 1 1 0 1z"/></g><path class="cls-2" d="M222.32 646.57L237 307.51l98.77 4.28-16.47 380.66s-20.81-5.44-50.14-19.24a331.21 331.21 0 0 1-46.84-26.64z"/><circle class="cls-1" cx="360.81" cy="246.5" r="69.83"/><path transform="rotate(-45 360.795 88.494)" fill="#ffc300" d="M298.23 25.92h125.15v125.15H298.23z"/><g id="flower-2" data-name="flower"><path class="cls-3" d="M90.9 384c-5.9-78.41-58.77-89.43-71.27-75.69S23.11 368.3 90.9 384zm40.6 66.34C66.64 404.68.88 400.44 0 423.33S99.39 483 137.1 462.86zm20.35 55.53c58.63-47.18 78.5-98.44 59.82-110.4s-62.67 64.85-61.5 104.28zm7.59 39.35c-32.36-44.51-92.44-70.31-99.77-48.33s66.63 63.18 100.61 56z"/><path class="cls-2" d="M161.3 595.29a1 1 0 0 1-1-1 294.6 294.6 0 0 0-16.07-110 350.58 350.58 0 0 0-42.79-84C70 354.39 37.13 328.06 36.8 327.8a1 1 0 0 1-.17-1.41 1 1 0 0 1 1.4-.16c.33.26 33.37 26.74 65 72.8a352.46 352.46 0 0 1 43.06 84.48 296.54 296.54 0 0 1 16.19 110.83 1 1 0 0 1-.98.95z"/><path class="cls-3" d="M122.15 432c47.49-69.77 10.49-108.94-2.55-111s-33.94 45.49 2.55 111z"/><path class="cls-2" d="M122.16 433H122a1 1 0 0 1-.85-1.13c.07-.46 6.58-46.76.89-80.76a1 1 0 0 1 .83-1.17 1 1 0 0 1 1.17.84c5.74 34.31-.81 80.91-.88 81.37a1 1 0 0 1-1 .85z"/><path class="cls-3" d="M161.62 587.55c83.21-14.09 85.84-67.9 78.31-78.76s-56.36 7.07-78.31 78.76z"/><path class="cls-2" d="M161.62 588.55a1 1 0 0 1-.58-1.81c.38-.28 38.27-27.65 58.85-55.31a1 1 0 0 1 1.61 1.19c-20.77 27.92-58.91 55.47-59.3 55.74a1 1 0 0 1-.58.19zM134.07 457.1a1.36 1.36 0 0 1-.35-.07 626.81 626.81 0 0 0-92-26.89 1 1 0 1 1 .37-2 629.16 629.16 0 0 1 92.38 27 1 1 0 0 1-.36 1.94zM151 503.76a1 1 0 0 1-.54-.15 1 1 0 0 1-.31-1.38c.34-.54 34.17-53.58 48.11-83a1 1 0 0 1 1.33-.47 1 1 0 0 1 .48 1.33c-14 29.5-47.89 82.65-48.23 83.18a1 1 0 0 1-.84.49zm8.71 46.64a1 1 0 0 1-.42-.09c-38.66-17.46-71.8-40.35-72.13-40.58a1 1 0 1 1 1.14-1.65c.33.23 33.32 23 71.82 40.41a1 1 0 0 1 .49 1.32 1 1 0 0 1-.9.59z"/></g><path class="cls-2" d="M312.55 298.32a1 1 0 0 1-.81-.42L187.37 127.32a1 1 0 1 1 1.62-1.18l124.36 170.59a1 1 0 0 1-.21 1.39 1 1 0 0 1-.59.2z"/></g></g></svg>