<svg xmlns="http://www.w3.org/2000/svg" viewBox="0 0 233.53 310.94"><g data-name="Layer 2"><g data-name="Layer 1"><circle cx="156.39" cy="77.14" r="77.14" fill="#00e193"/><path d="M61.61 216.27q0-16.53 10-31.56t21.6-24.24a135.32 135.32 0 0 0 21.6-21.6q10-12.39 10-24.8 0-13.14-9-20.28t-25.27-7.14q-31.56 0-44.71 33.44L1.5 94.54q11.27-27.79 35.88-43t55-15.22q34.18 0 59.17 19.73t25 54.29a66.14 66.14 0 0 1-6.58 29.3 89.35 89.35 0 0 1-15.78 23.11q-9.21 9.57-18.41 18A119.06 119.06 0 0 0 120 198.23q-6.57 9-6.57 18z" fill="#ef5ed4"/><path d="M1.5 96.79a1.55 1.55 0 0 1-.56-.11 1.5 1.5 0 0 1-.83-2C7.71 76 20 61.26 36.59 51a1.5 1.5 0 1 1 1.58 2.55c-16 9.92-27.92 24.15-35.28 42.3a1.5 1.5 0 0 1-1.39.94z" fill="#0a1447"/><path d="M110.08 300.05a31.76 31.76 0 0 1-45.09 0 31.94 31.94 0 0 1 22.55-54.48 31.88 31.88 0 0 1 22.54 54.48z" fill="#00adff"/><path d="M151.59 56q-25-19.72-59.17-19.73h-1.48a76.74 76.74 0 0 0-11.69 40.87A78.09 78.09 0 0 0 80 87.69a51.86 51.86 0 0 1 10.55-1q16.15 0 25.17 7.14t9 20.28q0 12.41-10 24.8c-.56.71-1.14 1.39-1.71 2.08a76.7 76.7 0 0 0 43.33 13.32c1.68 0 3.35-.07 5-.17a97.1 97.1 0 0 0 8.66-14.52 66.14 66.14 0 0 0 6.58-29.3q0-34.56-24.99-54.32z" fill="#013bd6"/><path d="M125.51 310.94H45.2a1.5 1.5 0 1 1 0-3h80.31a1.5 1.5 0 0 1 0 3z" fill="#000d46"/></g></g></svg>